<?xml version="1.0" standalone="no"?>
<!DOCTYPE svg PUBLIC "-//W3C//DTD SVG 20010904//EN"
 "http://www.w3.org/TR/2001/REC-SVG-20010904/DTD/svg10.dtd">
<svg version="1.0" xmlns="http://www.w3.org/2000/svg"
 width="360.000000pt" height="360.000000pt" viewBox="0 0 360.000000 360.000000"
 preserveAspectRatio="xMidYMid meet">
<metadata>
Created by potrace 1.14, written by Peter Selinger 2001-2017
</metadata>
<g transform="translate(0.000000,360.000000) scale(0.100000,-0.100000)"
fill="#000000" stroke="none">
<path d="M2 1803 l3 -1798 1798 -3 1797 -2 0 1800 0 1800 -1800 0 -1800 0 2
-1797z m1909 422 c98 -231 178 -426 178 -432 1 -9 -21 -13 -78 -13 l-79 0 -49
118 c-27 64 -92 219 -144 344 -51 125 -96 224 -100 220 -8 -9 -319 -789 -319
-800 0 -4 25 -7 55 -7 31 1 58 -1 59 -4 2 -3 -9 -34 -24 -68 l-28 -62 -63 -3
-63 -3 -102 -245 -102 -245 -86 -3 c-49 -2 -86 1 -86 7 0 5 88 220 196 477
107 258 259 621 336 807 l141 338 90 -3 91 -3 177 -420z m269 422 c0 -5 75
-185 338 -812 143 -341 278 -664 300 -717 l41 -98 -88 0 -87 0 -51 123 c-28
67 -74 179 -103 250 l-52 127 -314 0 c-173 0 -314 3 -314 7 0 4 10 33 22 65
20 50 27 59 53 64 16 3 135 4 263 2 127 -2 232 1 232 5 0 9 -306 749 -324 785
-12 22 -14 19 -40 -48 -16 -39 -30 -69 -32 -67 -2 2 -22 45 -44 95 l-39 92 29
65 29 65 91 0 c49 0 90 -1 90 -3z m-426 -796 c20 -47 36 -92 36 -100 0 -9 -24
-75 -54 -146 -29 -72 -95 -232 -147 -357 l-94 -228 -88 0 c-81 0 -89 2 -83 18
58 151 382 910 387 904 4 -4 23 -45 43 -91z m574 -623 c39 -95 74 -181 78
-191 6 -16 0 -18 -81 -15 l-87 3 -74 178 c-41 99 -74 183 -74 188 0 5 38 9 83
9 l84 0 71 -172z"/>
</g>
</svg>
